<?xml version="1.0" standalone="no"?>
<!DOCTYPE svg PUBLIC "-//W3C//DTD SVG 20010904//EN"
 "http://www.w3.org/TR/2001/REC-SVG-20010904/DTD/svg10.dtd">
<svg version="1.0" xmlns="http://www.w3.org/2000/svg"
 width="700.000000pt" height="700.000000pt" viewBox="0 0 700.000000 700.000000"
 preserveAspectRatio="xMidYMid meet">
<metadata>
Created by potrace 1.14, written by Peter Selinger 2001-2017
</metadata>
<g transform="translate(0.000000,700.000000) scale(0.100000,-0.100000)"
fill="#000000" stroke="none">
<path d="M1250 6843 c-281 -240 -373 -459 -275 -653 25 -48 89 -121 123 -139
12 -6 21 -17 19 -23 -1 -7 5 -13 13 -14 8 0 20 -2 26 -2 6 -1 16 -12 23 -24 6
-13 9 -15 7 -6 -4 15 -2 16 19 6 13 -6 22 -14 20 -19 -3 -4 0 -11 6 -15 8 -4
9 -3 5 4 -4 7 -1 12 10 12 12 0 15 -6 11 -22 -5 -21 -5 -21 7 -6 7 10 16 14
20 10 4 -4 11 -7 14 -8 22 -3 70 -17 85 -25 11 -6 21 -8 23 -6 3 3 22 1 42 -4
20 -5 66 -12 102 -15 36 -3 71 -11 78 -16 8 -7 16 -7 25 -1 15 12 48 13 41 1
-3 -4 0 -8 5 -8 6 0 11 4 11 8 0 15 34 9 48 -7 11 -14 11 -14 6 2 -4 12 -1 17
11 17 9 0 14 -4 11 -8 -3 -5 1 -9 9 -9 8 0 12 4 9 9 -3 4 10 8 28 8 18 0 43 3
56 6 13 4 22 2 22 -5 0 -7 -4 -10 -8 -7 -5 3 -9 -1 -9 -9 0 -10 4 -12 12 -5 7
5 15 7 19 3 4 -4 4 1 0 11 -5 13 -4 17 4 12 6 -3 14 -2 17 4 5 8 12 7 23 -2
12 -10 14 -10 8 0 -4 7 -1 12 9 12 9 0 14 -4 11 -8 -3 -5 1 -9 8 -9 8 0 12 6
10 12 -6 14 26 16 44 2 9 -7 11 -6 7 5 -7 17 23 21 42 6 8 -6 18 -5 30 2 16
10 15 10 -4 5 -13 -4 -23 -2 -23 3 0 12 26 19 62 18 14 -1 24 2 22 6 -3 4 1 8
10 8 8 0 21 3 30 6 11 4 16 0 17 -12 0 -16 2 -15 9 4 6 14 18 22 34 22 19 0
25 -6 30 -33 3 -19 19 -54 35 -79 16 -26 28 -49 25 -52 -2 -3 -1 -4 2 -1 4 2
30 -16 58 -42 28 -25 73 -61 101 -79 38 -26 45 -34 28 -34 -29 0 -232 -62
-330 -101 -161 -63 -346 -168 -453 -255 -122 -99 -243 -247 -320 -390 -25 -46
-85 -203 -95 -249 -4 -20 -16 -101 -19 -130 -2 -17 -10 -42 -18 -55 -17 -27
-43 -105 -53 -160 -15 -78 -14 -395 1 -500 9 -58 16 -109 16 -115 0 -5 -1 -48
-2 -95 -2 -86 12 -190 32 -245 32 -87 93 -196 122 -216 5 -4 5 -13 1 -20 -5
-8 -5 -11 -1 -7 8 6 46 -24 119 -94 15 -15 31 -29 35 -30 4 -2 6 -6 5 -10 -2
-5 0 -7 5 -7 19 3 33 -3 63 -28 18 -16 30 -23 27 -18 -4 6 22 -3 57 -20 35
-16 64 -37 65 -45 1 -9 3 -11 6 -3 4 9 17 7 49 -7 24 -10 46 -15 51 -12 4 4 4
-4 1 -18 -5 -22 -5 -23 7 -7 17 22 21 22 48 -6 13 -12 20 -18 16 -13 -13 16
-9 31 4 18 7 -7 20 -12 29 -12 13 0 17 -6 14 -21 -3 -12 -1 -18 3 -15 4 4 7
12 7 17 0 8 7 11 18 8 1 0 20 -3 42 -5 22 -3 41 -9 43 -13 1 -4 14 -6 27 -3
38 7 39 -14 6 -129 -16 -57 -33 -122 -37 -144 -5 -22 -9 -42 -9 -45 -1 -3 -5
-27 -10 -55 -4 -27 -10 -59 -13 -70 -9 -38 -10 -351 -1 -410 17 -107 14 -128
-17 -150 -16 -11 -48 -39 -72 -62 -39 -37 -44 -47 -45 -90 -2 -66 9 -147 29
-213 24 -82 41 -109 63 -105 21 4 37 -10 43 -35 2 -8 20 -43 41 -78 20 -35 35
-67 31 -73 -3 -5 -1 -8 4 -7 6 2 28 -22 49 -52 l39 -55 -44 -2 c-65 -1 -97
-36 -96 -106 0 -31 9 -69 21 -95 l21 -42 -39 -6 c-38 -6 -40 -8 -33 -37 11
-54 44 -115 106 -199 21 -28 35 -55 31 -61 -3 -6 -1 -7 5 -3 6 3 19 -7 28 -24
10 -16 22 -30 27 -30 5 0 6 -7 3 -16 -3 -9 -2 -12 5 -8 12 7 51 -31 41 -41 -4
-4 0 -5 8 -3 8 2 14 -3 12 -10 -1 -8 1 -11 6 -8 10 6 37 -10 37 -24 0 -5 2 -9
5 -8 11 5 68 -36 63 -45 -3 -6 -1 -7 5 -3 15 9 54 -12 47 -24 -3 -6 1 -7 10
-4 8 4 21 2 28 -4 6 -5 47 -20 89 -32 62 -18 94 -22 167 -18 58 3 92 0 95 -6
2 -6 5 -3 5 7 1 10 9 17 21 17 11 0 20 5 20 11 0 8 5 7 15 -1 13 -11 14 -10 9
5 -5 12 -4 16 3 12 6 -4 14 0 17 9 3 8 10 12 16 9 5 -3 10 1 10 9 0 9 4 16 9
16 11 0 73 60 63 60 -4 0 -2 4 4 8 6 4 19 22 28 40 12 23 22 32 33 28 14 -6
14 -4 2 11 -13 15 -12 16 6 9 14 -5 17 -4 9 4 -11 11 8 114 28 154 5 10 6 16
0 12 -8 -5 -13 27 -16 101 -1 17 -4 29 -8 27 -11 -7 -16 20 -6 39 5 9 15 17
23 17 8 0 14 3 14 8 -7 41 21 75 55 66 14 -3 24 -9 22 -13 -2 -3 8 -7 22 -7
15 -1 59 -9 97 -18 39 -9 82 -17 98 -18 15 -1 27 -6 27 -10 0 -4 5 -8 11 -8 5
0 8 4 4 9 -3 6 6 6 24 1 16 -4 50 -7 75 -7 35 2 46 -2 47 -13 0 -10 3 -8 9 5
5 11 9 16 9 10 1 -5 16 -10 35 -10 19 0 32 4 29 9 -3 5 0 6 8 4 8 -3 27 -1 42
3 21 6 29 4 34 -7 4 -12 8 -12 13 -4 4 7 21 14 38 16 25 3 30 0 29 -19 0 -19
7 -86 18 -177 8 -59 15 -97 24 -127 5 -18 8 -33 5 -33 -10 0 39 -105 71 -149
21 -29 33 -56 29 -62 -4 -7 -3 -9 3 -6 13 8 45 -31 37 -46 -4 -7 -4 -9 1 -5 4
4 14 3 22 -3 9 -8 17 -8 26 -1 10 8 21 6 45 -8 18 -11 32 -23 32 -27 0 -22 91
-44 132 -32 18 5 29 3 32 -4 2 -7 5 -4 5 6 1 9 6 17 12 17 5 0 7 -5 3 -12 -4
-7 -3 -8 5 -4 6 4 9 11 6 16 -3 5 5 16 17 24 16 11 24 12 29 4 4 -6 17 -8 31
-5 22 6 39 17 88 59 8 7 18 12 23 10 5 -1 6 1 3 6 -6 11 38 54 47 47 4 -3 5
-2 2 1 -2 4 7 26 20 50 27 49 56 139 48 148 -7 6 15 10 32 6 6 -2 21 -2 34 -1
13 0 31 -5 39 -11 13 -11 14 -11 8 0 -10 16 25 13 36 -3 5 -6 8 -3 8 6 0 17
26 19 49 4 10 -6 12 -4 6 5 -6 10 -4 12 8 7 10 -4 17 -2 17 4 0 6 9 9 20 6 11
-3 20 -1 20 5 0 6 7 8 15 4 8 -3 15 0 15 6 0 9 3 9 12 0 7 -7 17 -12 23 -12 5
0 3 4 -5 10 -18 11 -11 19 23 22 14 1 25 6 24 11 -1 5 4 12 11 14 8 3 10 -1 6
-11 -3 -9 -1 -16 6 -16 6 0 8 5 5 10 -4 6 10 26 30 45 l37 34 -43 63 c-24 35
-48 66 -54 70 -6 5 -6 8 0 8 5 0 4 5 -3 12 -18 18 -15 33 4 18 13 -12 14 -10
3 13 -10 21 -9 30 2 44 12 15 12 16 -1 8 -13 -8 -13 -7 -1 8 7 9 9 17 3 17 -5
0 -8 8 -6 18 9 46 11 92 3 92 -6 0 -5 10 2 21 8 15 8 19 0 15 -7 -5 -11 3 -12
21 0 15 -3 37 -5 48 -8 30 -15 68 -16 83 -1 6 -6 12 -11 12 -5 0 -7 11 -5 25
3 13 2 22 -2 20 -5 -3 -10 2 -14 10 -3 8 0 15 7 15 9 0 9 2 0 8 -18 11 -45 81
-37 94 4 7 3 8 -4 4 -7 -4 -12 -3 -12 2 0 5 -9 30 -20 56 -12 25 -20 49 -20
52 1 4 -2 10 -7 13 -15 10 -119 225 -117 241 1 8 2 26 3 40 1 20 3 22 11 10 5
-8 10 -10 10 -4 0 5 -4 14 -9 20 -11 11 -2 66 9 59 5 -3 12 -1 15 5 4 6 1 9
-7 8 -9 -2 -12 8 -11 32 5 106 4 150 -2 161 -6 8 -4 10 4 4 10 -6 11 -3 1 15
-6 12 -9 28 -6 36 3 8 1 14 -4 14 -14 0 -12 34 3 49 10 10 9 11 -5 6 -20 -8
-25 10 -5 18 9 4 9 6 0 6 -7 1 -13 8 -13 17 0 11 5 14 17 10 10 -4 14 -4 10 0
-4 4 -1 14 5 23 10 13 10 14 -2 4 -8 -7 -21 -13 -29 -13 -14 1 -14 2 0 13 8 7
26 33 39 60 13 26 27 47 31 47 4 0 7 6 6 13 -1 39 4 67 14 67 6 0 8 -9 4 -22
-5 -20 -5 -21 5 -5 7 10 16 14 23 10 32 -20 37 -11 37 58 0 54 3 68 13 63 8
-6 8 -3 -1 9 -8 9 -11 21 -7 27 3 5 1 10 -5 10 -7 0 -8 6 0 19 13 25 13 41 0
21 -8 -13 -10 -13 -11 3 -2 24 -3 27 -22 70 -17 39 -20 40 -74 20 -10 -4 -29
33 -25 50 1 4 -3 7 -8 7 -6 0 -10 6 -10 13 0 6 -9 23 -20 37 -11 14 -20 33
-20 42 0 9 -6 19 -12 21 -8 4 2 20 29 46 23 23 40 41 37 41 -2 0 0 9 6 20 6
11 14 19 18 16 4 -2 8 7 7 22 0 15 5 27 12 27 6 0 15 4 20 9 4 5 3 7 -2 3 -6
-3 -17 -2 -25 4 -9 5 -10 9 -3 9 6 0 9 9 5 22 -4 16 -2 19 9 13 12 -8 12 -6 0
8 -8 10 -11 20 -8 23 3 3 2 16 -3 29 -6 15 -4 27 3 34 9 10 9 12 -3 9 -8 -2
-15 4 -15 12 -2 30 -18 76 -36 102 -11 14 -19 30 -19 35 0 4 -20 29 -44 56
-29 31 -43 54 -41 67 2 11 -1 20 -8 20 -8 0 -8 3 1 12 15 15 16 32 2 23 -6 -4
-10 5 -10 20 0 15 -5 35 -11 46 -13 25 -96 79 -121 79 -13 0 -24 13 -34 38 -8
20 -21 50 -29 66 -7 16 -11 36 -7 44 3 9 1 13 -5 9 -6 -4 -13 0 -17 8 -3 8 -1
15 5 15 6 0 7 5 4 10 -8 13 4 52 14 46 3 -3 7 7 6 22 0 15 5 27 12 27 6 0 15
4 20 8 4 5 1 7 -7 5 -17 -3 -16 18 6 121 7 36 11 68 8 73 -5 7 10 12 29 9 5
-1 6 3 2 9 -3 6 -10 8 -15 5 -6 -3 -7 27 -5 72 3 43 5 117 5 164 1 97 14 124
51 101 10 -7 26 -12 35 -12 14 0 15 -2 3 -18 -13 -16 -13 -16 7 0 11 10 24 18
28 18 13 0 127 59 141 74 8 7 11 16 8 20 -4 3 -2 6 4 6 6 0 9 11 8 24 -3 19 4
25 36 35 38 12 64 8 55 -8 -7 -11 74 -5 107 8 44 17 55 14 49 -14 -4 -23 -1
-25 29 -24 19 0 43 4 54 8 14 6 24 3 33 -8 8 -9 11 -11 8 -4 -8 15 10 27 19
13 3 -5 12 -10 18 -10 7 0 6 4 -3 11 -12 8 -9 10 12 6 15 -2 25 -1 23 3 -5 8
115 31 126 24 5 -3 9 -2 9 3 0 4 12 9 26 9 21 2 25 -2 21 -17 -3 -10 -1 -17 4
-13 5 3 9 11 9 19 0 18 25 26 40 12 10 -9 11 -9 6 1 -4 7 -2 12 6 13 7 1 24 3
38 5 14 2 40 5 58 7 18 2 35 7 39 10 3 4 13 1 21 -6 13 -10 14 -9 7 2 -6 11
-3 13 13 9 13 -4 20 -2 16 4 -9 15 30 5 42 -11 9 -11 12 -12 19 -1 5 9 4 11
-3 6 -7 -4 -12 -1 -12 6 0 7 11 14 25 14 14 1 36 5 50 8 20 5 23 3 20 -14 -2
-12 0 -18 6 -15 5 4 7 11 4 16 -7 11 30 26 82 33 21 3 56 8 78 12 22 4 55 8
73 8 17 1 32 6 32 11 0 6 5 3 10 -5 6 -9 10 -10 10 -3 0 12 21 18 100 29 25 3
47 8 49 10 2 2 11 -2 19 -9 10 -7 13 -8 9 -1 -4 7 2 14 13 17 11 3 20 0 20 -6
0 -9 2 -9 8 -1 4 7 42 17 85 24 48 8 81 18 84 27 4 11 8 11 22 1 11 -8 10 -5
-3 10 -11 13 -14 22 -7 22 8 0 9 6 3 18 -4 9 -8 38 -7 64 0 25 -3 44 -6 42 -4
-2 -9 9 -12 24 -9 47 -61 106 -119 137 l-54 28 -122 -27 c-67 -15 -141 -29
-164 -31 -54 -6 -29 0 -388 -85 -168 -39 -316 -73 -330 -76 -14 -3 -50 -11
-80 -18 -30 -7 -106 -24 -167 -36 -62 -13 -113 -26 -113 -30 0 -4 7 -24 15
-43 16 -39 17 -39 -38 -57 -43 -13 -77 -45 -77 -71 0 -23 -77 -49 -127 -42
-27 4 -54 -2 -96 -21 -65 -29 -78 -39 -98 -81 -8 -16 -18 -29 -23 -28 -13 3
-38 103 -32 126 2 9 0 15 -4 12 -8 -5 -27 61 -22 78 1 4 -3 7 -8 7 -6 0 -10 7
-10 15 0 8 -4 23 -9 33 -5 9 -13 28 -19 42 -26 66 -78 169 -104 207 -15 23
-28 45 -28 48 0 12 -132 168 -187 221 -29 28 -53 55 -53 61 0 5 10 15 23 22
12 6 14 9 5 7 -10 -3 -18 -1 -18 4 0 13 36 31 45 22 5 -4 5 -2 1 5 -4 7 -13
10 -21 6 -8 -3 -15 0 -15 6 0 6 3 11 8 11 4 0 7 22 7 49 0 27 -4 47 -9 43 -5
-3 -7 5 -4 16 4 12 2 22 -2 22 -5 0 -11 8 -14 18 -22 67 -176 156 -334 193
-102 24 -109 27 -114 54 -1 11 -10 25 -18 32 -8 6 -12 15 -8 18 4 4 0 14 -8
22 -8 9 -13 22 -10 30 3 8 1 11 -4 8 -6 -3 -10 -2 -10 3 0 13 -149 235 -163
244 -16 10 15 20 68 22 23 0 41 4 38 9 -2 4 4 7 14 8 10 0 27 3 38 5 23 5 164
26 183 27 13 0 17 17 5 17 -5 0 -35 4 -68 9 -89 14 -148 20 -270 26 -155 9
-160 10 -191 32 -80 56 -242 115 -353 127 -113 13 -259 7 -376 -14 -27 -5 -65
-12 -84 -15 -60 -10 -219 -54 -451 -125 -331 -102 -463 -131 -580 -131 -147 1
-211 37 -214 119 -1 17 -4 28 -8 25 -13 -7 -9 12 5 26 9 11 9 12 0 7 -10 -5
-12 4 -11 33 1 26 5 38 12 34 6 -3 5 0 -1 8 -15 15 -17 33 -4 25 4 -3 7 7 5
22 -4 40 7 112 17 106 5 -3 9 0 9 5 0 6 -6 11 -12 11 -9 0 -10 3 -2 8 6 4 10
15 8 25 -2 13 2 17 13 13 13 -5 13 -4 4 8 -9 10 -9 25 -1 57 6 24 14 54 17 67
8 32 -6 27 -67 -25z m1770 -844 c0 -5 4 -8 9 -4 19 11 101 -16 101 -34 0 -13
2 -13 9 -3 6 10 13 11 27 4 11 -6 27 -13 37 -16 10 -3 16 -10 13 -15 -3 -5 3
-7 14 -4 11 3 20 1 20 -4 0 -5 -16 -10 -36 -11 -30 -1 -35 1 -30 16 6 16 5 16
-7 1 -9 -12 -25 -16 -57 -14 -111 6 -146 26 -133 73 5 22 33 31 33 11z m2138
-1238 c14 -39 7 -52 -32 -56 -14 -2 -29 -6 -34 -9 -14 -8 -30 15 -27 41 1 14
-3 19 -12 16 -9 -3 -11 0 -8 10 6 15 59 36 85 33 8 0 21 -16 28 -35z m-276
-149 c-6 -16 -95 -62 -120 -62 -26 0 -34 11 -21 27 9 9 8 13 0 13 -6 0 -11 8
-11 19 0 13 16 26 52 43 l52 25 27 -26 c14 -14 24 -32 21 -39z"/>
<path d="M2995 5979 c-4 -6 -5 -12 -2 -15 2 -3 7 2 10 11 7 17 1 20 -8 4z"/>
<path d="M3015 5969 c-4 -6 -5 -12 -2 -15 2 -3 7 2 10 11 7 17 1 20 -8 4z"/>
<path d="M3093 5965 c0 -8 4 -12 9 -9 5 3 6 10 3 15 -9 13 -12 11 -12 -6z"/>
<path d="M5110 4766 c0 -2 7 -7 16 -10 8 -3 12 -2 9 4 -6 10 -25 14 -25 6z"/>
<path d="M5085 4740 c-3 -6 1 -7 9 -4 18 7 21 14 7 14 -6 0 -13 -4 -16 -10z"/>
<path d="M3870 6349 c0 -5 5 -7 10 -4 6 3 10 8 10 11 0 2 -4 4 -10 4 -5 0 -10
-5 -10 -11z"/>
<path d="M3680 6300 c-9 -6 -10 -10 -3 -10 6 0 15 5 18 10 8 12 4 12 -15 0z"/>
<path d="M3836 6302 c-3 -5 1 -9 9 -9 8 0 12 4 9 9 -3 4 -7 8 -9 8 -2 0 -6 -4
-9 -8z"/>
<path d="M3629 6283 c-13 -17 -13 -17 6 -3 11 8 22 16 24 17 2 2 0 3 -6 3 -6
0 -17 -8 -24 -17z"/>
<path d="M3559 6288 c-5 -18 -6 -38 -1 -34 7 8 12 36 6 36 -2 0 -4 -1 -5 -2z"/>
<path d="M2275 5961 c-3 -5 -2 -12 3 -15 5 -3 9 1 9 9 0 17 -3 19 -12 6z"/>
<path d="M1307 5919 c7 -7 15 -10 18 -7 3 3 -2 9 -12 12 -14 6 -15 5 -6 -5z"/>
<path d="M2164 5922 c4 -3 14 -7 22 -8 9 -1 13 0 10 4 -4 3 -14 7 -22 8 -9 1
-13 0 -10 -4z"/>
<path d="M6600 4846 c7 -7 13 -7 20 0 6 6 3 10 -10 10 -13 0 -16 -4 -10 -10z"/>
<path d="M6525 4840 c-3 -6 1 -7 9 -4 18 7 21 14 7 14 -6 0 -13 -4 -16 -10z"/>
<path d="M6496 4823 c-6 -14 -5 -15 5 -6 7 7 10 15 7 18 -3 3 -9 -2 -12 -12z"/>
<path d="M6436 4815 c-9 -26 -7 -32 5 -12 6 10 9 21 6 23 -2 3 -7 -2 -11 -11z"/>
<path d="M6310 4800 c0 -4 7 -7 15 -6 23 3 26 12 5 13 -11 1 -20 -2 -20 -7z"/>
<path d="M6175 4780 c-3 -6 1 -7 9 -4 18 7 21 14 7 14 -6 0 -13 -4 -16 -10z"/>
<path d="M6265 4779 c-3 -4 2 -6 10 -5 21 3 28 13 10 13 -9 0 -18 -4 -20 -8z"/>
<path d="M6076 4761 c-3 -4 6 -7 19 -7 14 0 22 2 19 5 -8 8 -34 10 -38 2z"/>
<path d="M6026 4718 c3 -5 10 -6 15 -3 13 9 11 12 -6 12 -8 0 -12 -4 -9 -9z"/>
<path d="M5833 4705 c0 -8 4 -12 9 -9 5 3 6 10 3 15 -9 13 -12 11 -12 -6z"/>
<path d="M5795 4700 c-3 -5 -1 -10 4 -10 6 0 11 5 11 10 0 6 -2 10 -4 10 -3 0
-8 -4 -11 -10z"/>
<path d="M5690 4691 c-8 -6 -19 -7 -25 -4 -5 4 -7 2 -2 -2 12 -14 44 -13 44 2
0 7 -1 13 -1 13 -1 0 -8 -4 -16 -9z"/>
<path d="M5720 4686 c0 -2 8 -10 18 -17 15 -13 16 -12 3 4 -13 16 -21 21 -21
13z"/>
<path d="M4999 4668 c-5 -18 -6 -38 -1 -34 7 8 12 36 6 36 -2 0 -4 -1 -5 -2z"/>
<path d="M5615 4660 c3 -5 8 -10 11 -10 2 0 4 5 4 10 0 6 -5 10 -11 10 -5 0
-7 -4 -4 -10z"/>
<path d="M5489 4643 c-13 -16 -12 -17 4 -4 16 13 21 21 13 21 -2 0 -10 -8 -17
-17z"/>
<path d="M5409 4637 c6 -8 7 -18 3 -22 -4 -5 -1 -5 6 -1 10 6 10 11 1 22 -6 8
-14 14 -16 14 -3 0 0 -6 6 -13z"/>
<path d="M5516 4633 c-6 -14 -5 -15 5 -6 7 7 10 15 7 18 -3 3 -9 -2 -12 -12z"/>
<path d="M4950 4631 c0 -5 7 -12 16 -15 14 -5 15 -4 4 9 -14 17 -20 19 -20 6z"/>
<path d="M5085 4620 c-3 -6 1 -7 9 -4 18 7 21 14 7 14 -6 0 -13 -4 -16 -10z"/>
<path d="M5255 4621 c-6 -10 11 -24 32 -27 7 -1 15 1 18 6 2 4 -5 7 -18 6 -13
-1 -21 4 -19 12 2 14 -4 16 -13 3z"/>
<path d="M4916 4553 c-6 -14 -5 -15 5 -6 7 7 10 15 7 18 -3 3 -9 -2 -12 -12z"/>
<path d="M4670 4516 c0 -2 8 -10 18 -17 15 -13 16 -12 3 4 -13 16 -21 21 -21
13z"/>
<path d="M4669 4463 c-13 -16 -12 -17 4 -4 16 13 21 21 13 21 -2 0 -10 -8 -17
-17z"/>
<path d="M4646 4122 c-3 -5 1 -9 9 -9 8 0 12 4 9 9 -3 4 -7 8 -9 8 -2 0 -6 -4
-9 -8z"/>
<path d="M4630 4061 c0 -6 4 -13 10 -16 6 -3 7 1 4 9 -7 18 -14 21 -14 7z"/>
<path d="M4593 3873 c0 -9 4 -10 14 -2 7 6 13 12 13 14 0 1 -6 2 -13 2 -8 0
-14 -6 -14 -14z"/>
<path d="M4904 2914 c-18 -14 -18 -15 4 -4 12 6 22 13 22 15 0 8 -5 6 -26 -11z"/>
<path d="M4893 2875 c0 -8 4 -12 9 -9 5 3 6 10 3 15 -9 13 -12 11 -12 -6z"/>
<path d="M2100 2780 c-9 -6 -10 -10 -3 -10 6 0 15 5 18 10 8 12 4 12 -15 0z"/>
<path d="M5073 2435 c0 -8 4 -12 9 -9 5 3 6 10 3 15 -9 13 -12 11 -12 -6z"/>
<path d="M4966 2298 c3 -5 10 -6 15 -3 13 9 11 12 -6 12 -8 0 -12 -4 -9 -9z"/>
<path d="M4946 2264 c-5 -14 -4 -15 9 -4 17 14 19 20 6 20 -5 0 -12 -7 -15
-16z"/>
<path d="M3270 790 c-9 -16 -8 -18 5 -14 8 3 12 11 8 17 -4 6 0 8 11 4 10 -4
15 -3 11 3 -10 16 -23 12 -35 -10z"/>
<path d="M3600 740 c-9 -6 -10 -10 -3 -10 6 0 15 5 18 10 8 12 4 12 -15 0z"/>
<path d="M3650 737 c0 -2 6 -10 14 -16 11 -9 16 -9 22 1 4 7 4 10 -1 6 -4 -4
-14 -3 -22 3 -7 6 -13 9 -13 6z"/>
<path d="M3833 725 c0 -8 4 -12 9 -9 5 3 6 10 3 15 -9 13 -12 11 -12 -6z"/>
<path d="M3865 719 c-3 -4 2 -6 10 -5 21 3 28 13 10 13 -9 0 -18 -4 -20 -8z"/>
<path d="M5255 520 c-3 -5 -1 -10 4 -10 6 0 11 5 11 10 0 6 -2 10 -4 10 -3 0
-8 -4 -11 -10z"/>
<path d="M3255 500 c-3 -5 -1 -10 4 -10 6 0 11 5 11 10 0 6 -2 10 -4 10 -3 0
-8 -4 -11 -10z"/>
<path d="M4860 420 c-9 -6 -10 -10 -3 -10 6 0 15 5 18 10 8 12 4 12 -15 0z"/>
<path d="M4987 419 c7 -7 15 -10 18 -7 3 3 -2 9 -12 12 -14 6 -15 5 -6 -5z"/>
<path d="M4794 366 c1 -8 5 -18 8 -22 4 -3 5 1 4 10 -1 8 -5 18 -8 22 -4 3 -5
-1 -4 -10z"/>
<path d="M3170 345 c0 -7 30 -13 34 -7 3 4 -4 9 -15 9 -10 1 -19 0 -19 -2z"/>
<path d="M4751 267 c-13 -21 -12 -21 5 -5 10 10 16 20 13 22 -3 3 -11 -5 -18
-17z"/>
<path d="M3106 245 c-16 -25 -16 -25 3 -13 11 6 18 15 15 19 -2 4 2 10 8 12 8
4 9 6 2 6 -7 1 -19 -10 -28 -24z"/>
<path d="M3070 221 c0 -6 4 -13 10 -16 6 -3 7 1 4 9 -7 18 -14 21 -14 7z"/>
<path d="M4735 211 c-3 -5 -2 -12 3 -15 5 -3 9 1 9 9 0 17 -3 19 -12 6z"/>
<path d="M2828 133 c6 -2 18 -2 25 0 6 3 1 5 -13 5 -14 0 -19 -2 -12 -5z"/>
<path d="M4667 119 c7 -7 15 -10 18 -7 3 3 -2 9 -12 12 -14 6 -15 5 -6 -5z"/>
<path d="M4588 103 c6 -2 18 -2 25 0 6 3 1 5 -13 5 -14 0 -19 -2 -12 -5z"/>
<path d="M4490 59 c0 -5 5 -7 10 -4 6 3 10 8 10 11 0 2 -4 4 -10 4 -5 0 -10
-5 -10 -11z"/>
</g>
</svg>
